HIERARCHY
ROOT mixamorig:Hips
{
	OFFSET 0.000000 201.639420 0.000000
	CHANNELS 6 Xposition Yposition Zposition Xrotation Yrotation Zrotation
	JOINT mixamorig:Spine
	{
		OFFSET 0.006200 19.524994 -2.481800
		CHANNELS 3 Xrotation Yrotation Zrotation
		JOINT mixamorig:Spine1
		{
			OFFSET -0.000900 22.835007 -2.825400
			CHANNELS 3 Xrotation Yrotation Zrotation
			JOINT mixamorig:Spine2
			{
				OFFSET -0.020600 26.552490 -3.193300
				CHANNELS 3 Xrotation Yrotation Zrotation
				JOINT mixamorig:Neck
				{
					OFFSET -0.060000 30.701813 1.352200
					CHANNELS 3 Xrotation Yrotation Zrotation
					JOINT mixamorig:Head
					{
						OFFSET -0.087200 22.547607 3.670900
						CHANNELS 3 Xrotation Yrotation Zrotation
						JOINT mixamorig:HeadTop_End
						{
							OFFSET -0.830600 40.355194 7.893500
							CHANNELS 3 Xrotation Yrotation Zrotation
							End Site
							{
								OFFSET 0.000000 30.592346 0.000000
							}
						}
						JOINT mixamorig:RightEye
						{
							OFFSET -6.302100 18.118591 16.197100
							CHANNELS 3 Xrotation Yrotation Zrotation
							End Site
							{
								OFFSET 0.000000 30.592346 0.000000
							}
						}
						JOINT mixamorig:LeftEye
						{
							OFFSET 6.741500 18.382690 16.401899
							CHANNELS 3 Xrotation Yrotation Zrotation
							End Site
							{
								OFFSET 0.000000 30.592346 0.000000
							}
						}
					}
				}
				JOINT mixamorig:LeftShoulder
				{
					OFFSET 11.924900 18.230499 1.425400
					CHANNELS 3 Xrotation Yrotation Zrotation
					JOINT mixamorig:LeftArm
					{
						OFFSET 25.435989 -0.697632 -5.229300
						CHANNELS 3 Xrotation Yrotation Zrotation
						JOINT mixamorig:LeftForeArm
						{
							OFFSET 54.684776 0.000000 0.000000
							CHANNELS 3 Xrotation Yrotation Zrotation
							JOINT mixamorig:LeftHand
							{
								OFFSET 55.098175 0.000000 0.000000
								CHANNELS 3 Xrotation Yrotation Zrotation
								JOINT mixamorig:LeftHandMiddle1
								{
									OFFSET 23.369751 0.000000 0.000000
									CHANNELS 3 Xrotation Yrotation Zrotation
									JOINT mixamorig:LeftHandMiddle2
									{
										OFFSET 6.378677 0.000000 0.000000
										CHANNELS 3 Xrotation Yrotation Zrotation
										JOINT mixamorig:LeftHandMiddle3
										{
											OFFSET 6.148331 0.000000 0.000000
											CHANNELS 3 Xrotation Yrotation Zrotation
											JOINT mixamorig:LeftHandMiddle4
											{
												OFFSET 6.582504 0.000000 0.000000
												CHANNELS 3 Xrotation Yrotation Zrotation
												End Site
												{
													OFFSET -1.168900 6.395691 1.028606
												}
											}
										}
									}
								}
								JOINT mixamorig:LeftHandThumb1
								{
									OFFSET 7.235672 -3.848206 5.434273
									CHANNELS 3 Xrotation Yrotation Zrotation
									JOINT mixamorig:LeftHandThumb2
									{
										OFFSET 6.568451 -3.792297 3.792300
										CHANNELS 3 Xrotation Yrotation Zrotation
										JOINT mixamorig:LeftHandThumb3
										{
											OFFSET 6.063080 -3.500519 3.500518
											CHANNELS 3 Xrotation Yrotation Zrotation
											JOINT mixamorig:LeftHandThumb4
											{
												OFFSET 4.793182 -2.767334 2.767349
												CHANNELS 3 Xrotation Yrotation Zrotation
												End Site
												{
													OFFSET 0.101639 6.054260 1.275483
												}
											}
										}
									}
								}
								JOINT mixamorig:LeftHandIndex1
								{
									OFFSET 23.101074 -0.309540 4.992809
									CHANNELS 3 Xrotation Yrotation Zrotation
									JOINT mixamorig:LeftHandIndex2
									{
										OFFSET 6.226883 0.000000 0.000000
										CHANNELS 3 Xrotation Yrotation Zrotation
										JOINT mixamorig:LeftHandIndex3
										{
											OFFSET 6.094330 0.000000 0.000000
											CHANNELS 3 Xrotation Yrotation Zrotation
											JOINT mixamorig:LeftHandIndex4
											{
												OFFSET 5.482605 0.000000 0.000000
												CHANNELS 3 Xrotation Yrotation Zrotation
												End Site
												{
													OFFSET -1.427902 5.233032 0.797164
												}
											}
										}
									}
								}
								JOINT mixamorig:LeftHandRing1
								{
									OFFSET 22.299240 0.021149 -3.964172
									CHANNELS 3 Xrotation Yrotation Zrotation
									JOINT mixamorig:LeftHandRing2
									{
										OFFSET 6.321869 0.000000 0.000000
										CHANNELS 3 Xrotation Yrotation Zrotation
										JOINT mixamorig:LeftHandRing3
										{
											OFFSET 5.899796 0.000000 0.000000
											CHANNELS 3 Xrotation Yrotation Zrotation
											JOINT mixamorig:LeftHandRing4
											{
												OFFSET 6.517899 0.000000 0.000000
												CHANNELS 3 Xrotation Yrotation Zrotation
												End Site
												{
													OFFSET -1.637299 6.232208 0.980890
												}
											}
										}
									}
								}
								JOINT mixamorig:LeftHandPinky1
								{
									OFFSET 20.463791 -0.302338 -8.562233
									CHANNELS 3 Xrotation Yrotation Zrotation
									JOINT mixamorig:LeftHandPinky2
									{
										OFFSET 6.908646 0.000000 0.000000
										CHANNELS 3 Xrotation Yrotation Zrotation
										JOINT mixamorig:LeftHandPinky3
										{
											OFFSET 4.622849 0.000000 0.000000
											CHANNELS 3 Xrotation Yrotation Zrotation
											JOINT mixamorig:LeftHandPinky4
											{
												OFFSET 5.216080 0.000000 0.000000
												CHANNELS 3 Xrotation Yrotation Zrotation
												End Site
												{
													OFFSET -0.606308 5.116241 0.814926
												}
											}
										}
									}
								}
							}
						}
					}
				}
				JOINT mixamorig:RightShoulder
				{
					OFFSET -12.001300 18.284088 1.348900
					CHANNELS 3 Xrotation Yrotation Zrotation
					JOINT mixamorig:RightArm
					{
						OFFSET -25.308500 -0.751312 -5.164599
						CHANNELS 3 Xrotation Yrotation Zrotation
						JOINT mixamorig:RightForeArm
						{
							OFFSET -54.684429 0.000000 0.000000
							CHANNELS 3 Xrotation Yrotation Zrotation
							JOINT mixamorig:RightHand
							{
								OFFSET -55.150291 0.000000 0.000000
								CHANNELS 3 Xrotation Yrotation Zrotation
								JOINT mixamorig:RightHandMiddle1
								{
									OFFSET -23.317566 0.000000 0.000000
									CHANNELS 3 Xrotation Yrotation Zrotation
									JOINT mixamorig:RightHandMiddle2
									{
										OFFSET -6.378403 0.000000 0.000000
										CHANNELS 3 Xrotation Yrotation Zrotation
										JOINT mixamorig:RightHandMiddle3
										{
											OFFSET -6.148193 0.000000 0.000000
											CHANNELS 3 Xrotation Yrotation Zrotation
											JOINT mixamorig:RightHandMiddle4
											{
												OFFSET -6.583389 0.000000 0.000000
												CHANNELS 3 Xrotation Yrotation Zrotation
												End Site
												{
													OFFSET 1.171692 6.395905 1.029786
												}
											}
										}
									}
								}
								JOINT mixamorig:RightHandThumb1
								{
									OFFSET -7.190521 -3.860474 5.435846
									CHANNELS 3 Xrotation Yrotation Zrotation
									JOINT mixamorig:RightHandThumb2
									{
										OFFSET -6.567429 -3.791718 3.791708
										CHANNELS 3 Xrotation Yrotation Zrotation
										JOINT mixamorig:RightHandThumb3
										{
											OFFSET -6.062469 -3.500153 3.500166
											CHANNELS 3 Xrotation Yrotation Zrotation
											JOINT mixamorig:RightHandThumb4
											{
												OFFSET -4.792618 -2.767029 2.767022
												CHANNELS 3 Xrotation Yrotation Zrotation
												End Site
												{
													OFFSET -0.100327 6.053253 1.276754
												}
											}
										}
									}
								}
								JOINT mixamorig:RightHandIndex1
								{
									OFFSET -23.048981 -0.310791 4.992554
									CHANNELS 3 Xrotation Yrotation Zrotation
									JOINT mixamorig:RightHandIndex2
									{
										OFFSET -6.227539 0.000000 0.000000
										CHANNELS 3 Xrotation Yrotation Zrotation
										JOINT mixamorig:RightHandIndex3
										{
											OFFSET -6.095047 0.000000 0.000000
											CHANNELS 3 Xrotation Yrotation Zrotation
											JOINT mixamorig:RightHandIndex4
											{
												OFFSET -5.484772 0.000000 0.000000
												CHANNELS 3 Xrotation Yrotation Zrotation
												End Site
												{
													OFFSET 1.420593 5.237305 0.797056
												}
											}
										}
									}
								}
								JOINT mixamorig:RightHandRing1
								{
									OFFSET -22.246323 0.020569 -3.963762
									CHANNELS 3 Xrotation Yrotation Zrotation
									JOINT mixamorig:RightHandRing2
									{
										OFFSET -6.322128 0.000000 0.000000
										CHANNELS 3 Xrotation Yrotation Zrotation
										JOINT mixamorig:RightHandRing3
										{
											OFFSET -5.900024 0.000000 0.000000
											CHANNELS 3 Xrotation Yrotation Zrotation
											JOINT mixamorig:RightHandRing4
											{
												OFFSET -6.518356 0.000000 0.000000
												CHANNELS 3 Xrotation Yrotation Zrotation
												End Site
												{
													OFFSET 1.636398 6.232697 0.982186
												}
											}
										}
									}
								}
								JOINT mixamorig:RightHandPinky1
								{
									OFFSET -20.411011 -0.303314 -8.561701
									CHANNELS 3 Xrotation Yrotation Zrotation
									JOINT mixamorig:RightHandPinky2
									{
										OFFSET -6.907349 0.000000 0.000000
										CHANNELS 3 Xrotation Yrotation Zrotation
										JOINT mixamorig:RightHandPinky3
										{
											OFFSET -4.623840 0.000000 0.000000
											CHANNELS 3 Xrotation Yrotation Zrotation
											JOINT mixamorig:RightHandPinky4
											{
												OFFSET -5.218353 0.000000 0.000000
												CHANNELS 3 Xrotation Yrotation Zrotation
												End Site
												{
													OFFSET 0.602097 5.118835 0.816273
												}
											}
										}
									}
								}
							}
						}
					}
				}
			}
		}
	}
	JOINT mixamorig:LeftUpLeg
	{
		OFFSET 18.168400 -13.561905 -0.039000
		CHANNELS 3 Xrotation Yrotation Zrotation
		JOINT mixamorig:LeftLeg
		{
			OFFSET 0.577358 -80.825211 -3.695000
			CHANNELS 3 Xrotation Yrotation Zrotation
			JOINT mixamorig:LeftFoot
			{
				OFFSET -0.577356 -83.370262 -6.520700
				CHANNELS 3 Xrotation Yrotation Zrotation
				JOINT mixamorig:LeftToeBase
				{
					OFFSET 0.750401 -20.798306 25.135401
					CHANNELS 3 Xrotation Yrotation Zrotation
					JOINT mixamorig:LeftToe_End
					{
						OFFSET -0.000500 0.001200 19.917799
						CHANNELS 3 Xrotation Yrotation Zrotation
						End Site
						{
							OFFSET 0.000000 19.917805 0.000000
						}
					}
				}
			}
		}
	}
	JOINT mixamorig:RightUpLeg
	{
		OFFSET -18.162500 -13.585098 -0.041000
		CHANNELS 3 Xrotation Yrotation Zrotation
		JOINT mixamorig:RightLeg
		{
			OFFSET -0.595024 -80.945297 -3.631900
			CHANNELS 3 Xrotation Yrotation Zrotation
			JOINT mixamorig:RightFoot
			{
				OFFSET 0.595024 -83.218193 -6.561200
				CHANNELS 3 Xrotation Yrotation Zrotation
				JOINT mixamorig:RightToeBase
				{
					OFFSET -0.753601 -20.807106 25.115000
					CHANNELS 3 Xrotation Yrotation Zrotation
					JOINT mixamorig:RightToe_End
					{
						OFFSET 0.000299 0.001700 19.918200
						CHANNELS 3 Xrotation Yrotation Zrotation
						End Site
						{
							OFFSET 0.000000 19.918203 0.000000
						}
					}
				}
			}
		}
	}
}
MOTION
Frames: 6
Frame Time: 0.033333
-3.104491 186.075348 0.608032 11.590355 1.735882 -1.931129 2.991375 -0.724750 -1.239538 6.171976 -1.716862 -0.882044 6.167594 -1.734977 -0.876826 -3.653162 1.035227 1.788767 -11.126992 -0.487428 7.010317 0.000000 0.000000 0.000000 0.000000 0.000000 0.000000 0.000000 0.000000 0.000000 0.602543 1.809958 -9.968151 -68.231240 -95.540208 -100.832826 -0.000246 -96.812713 -0.000273 -32.990299 16.249724 -21.208840 0.948670 3.492799 -30.382454 0.507115 2.597995 -22.085630 0.127675 1.322523 -11.029029 -0.000000 0.000000 0.000000 -10.213116 1.896124 12.030095 -3.696915 25.665085 4.498739 -3.976318 10.556355 3.974259 0.000002 0.000001 -0.000001 0.949651 3.494462 -30.398495 0.506390 2.596211 -22.069615 0.127693 1.322526 -11.029044 -0.000001 -0.000001 0.000000 0.949658 3.494465 -30.398484 0.506375 2.596221 -22.069608 0.127690 1.322530 -11.029048 -0.000001 0.000001 -0.000001 2.999580 6.997534 -30.075601 0.511061 -1.462495 -22.543727 0.127686 1.322528 -11.029048 -0.000001 0.000000 0.000001 0.698125 -2.430413 11.548362 -13.732746 60.825157 66.350855 -0.000002 11.748997 0.000001 -14.083474 3.154008 5.055841 -0.000004 -0.000004 0.000003 -0.000013 0.000001 0.000057 0.000010 0.000003 0.000008 -0.000006 0.000001 -0.000003 1.153611 -6.544359 -17.940931 5.807540 -21.909828 -1.095759 -0.669465 -6.482581 -2.795470 0.000001 -0.000001 0.000000 -0.000004 -0.000001 -0.000003 -0.000004 -0.000008 0.000006 0.000005 -0.000002 -0.000005 0.000003 -0.000000 0.000000 -0.000005 -0.000008 -0.000001 0.000006 -0.000004 0.000023 -0.000005 0.000000 0.000001 0.000000 -0.000001 0.000001 -0.000007 0.000002 0.000009 0.000010 -0.000006 -0.000005 -0.000004 -0.000009 0.000004 0.000005 -0.000002 0.000001 -3.512111 14.443169 6.927223 32.452073 -9.439770 -0.503610 -1.962372 -2.149956 5.980240 -38.694579 0.590854 -4.057216 -0.000000 0.000000 0.000000 -51.654511 -3.650477 2.813137 26.927466 -8.246612 -0.451209 -7.435971 -1.028012 -4.924053 0.016499 0.000003 -0.000001 -0.000001 -0.000001 -0.000000 
-4.691404 184.184555 12.646610 10.601066 2.655929 -3.550019 3.268356 -0.557729 -0.374245 6.556528 -1.665896 -0.386744 6.553944 -1.676768 -0.385743 -3.548512 0.850980 2.140213 -11.044692 -0.922752 6.829468 0.000000 0.000000 -0.000000 0.000000 0.000000 -0.000000 0.000000 0.000000 -0.000000 0.599732 1.528508 -9.933571 -72.597568 -95.534143 -104.916630 -0.000140 -96.935260 -0.000225 -33.334055 15.825451 -21.009262 0.948673 3.492799 -30.382457 0.507103 2.598001 -22.085615 0.127690 1.322540 -11.029030 -0.000000 0.000000 0.000000 -10.213116 1.896124 12.030093 -3.696916 25.665081 4.498739 -3.976320 10.556355 3.974260 0.000001 0.000000 0.000001 0.949652 3.494462 -30.398501 0.506388 2.596230 -22.069588 0.127692 1.322532 -11.029046 -0.000001 -0.000000 -0.000002 0.949658 3.494465 -30.398488 0.506385 2.596238 -22.069579 0.127694 1.322520 -11.029050 -0.000001 0.000000 0.000001 2.999579 6.997535 -30.075601 0.511074 -1.462478 -22.543712 0.127691 1.322539 -11.029053 -0.000001 0.000000 0.000001 0.708466 -2.597402 11.703978 -15.641885 61.073455 67.682435 0.000004 10.044965 -0.000006 -14.185167 3.852739 5.031751 -0.000013 -0.000004 0.000005 -0.000008 0.000001 0.000057 0.000007 -0.000001 0.000009 0.000001 0.000000 -0.000002 1.153604 -6.544360 -17.940928 5.807543 -21.909828 -1.095753 -0.669461 -6.482579 -2.795468 -0.000002 -0.000001 0.000000 -0.000011 -0.000002 0.000001 -0.000005 -0.000007 0.000005 0.000006 -0.000000 -0.000005 0.000002 -0.000000 0.000001 -0.000005 -0.000007 0.000001 0.000010 -0.000004 0.000021 0.000001 -0.000001 0.000002 -0.000000 0.000000 0.000001 -0.000015 0.000002 0.000011 0.000006 -0.000006 -0.000006 -0.000002 -0.000007 0.000003 -0.000001 -0.000000 -0.000000 -6.128524 13.563695 11.238535 39.559677 -9.686849 -0.504046 12.029337 -1.934969 3.449208 -52.836007 0.744539 -2.407723 -0.000000 0.000000 -0.000000 -51.434787 -3.772111 4.195952 32.704397 -9.928226 -0.548774 0.819886 -2.139326 -3.750825 -0.102638 0.000004 0.000001 0.000000 0.000000 0.000000 
-5.711582 182.125137 23.642696 9.685387 3.008703 -5.289894 3.537350 -0.453330 0.669085 6.966110 -1.475162 -0.002049 6.965226 -1.479380 -0.003858 -3.457401 0.697310 2.511117 -11.155613 -1.167589 6.570983 0.000000 -0.000000 -0.000000 0.000000 -0.000000 -0.000000 0.000000 -0.000000 -0.000000 0.600171 1.421932 -9.941213 -76.344740 -95.504220 -108.345850 0.000207 -96.966003 0.000202 -33.770460 15.339609 -20.762390 0.948673 3.492799 -30.382454 0.507101 2.597997 -22.085620 0.127704 1.322546 -11.029059 -0.000002 -0.000001 0.000001 -10.213114 1.896123 12.030097 -3.696918 25.665083 4.498738 -3.976319 10.556357 3.974258 0.000001 0.000003 0.000000 0.949652 3.494462 -30.398498 0.506380 2.596223 -22.069624 0.127695 1.322544 -11.029071 -0.000001 -0.000000 0.000001 0.949659 3.494466 -30.398488 0.506380 2.596235 -22.069613 0.127709 1.322546 -11.029074 -0.000002 -0.000000 0.000002 2.999578 6.997534 -30.075597 0.511071 -1.462480 -22.543738 0.127699 1.322556 -11.029051 -0.000001 0.000000 0.000001 0.711251 -2.687220 11.740675 -17.348484 61.005740 68.921069 0.000008 8.870346 0.000029 -13.581614 4.552619 4.434780 -0.000008 -0.000005 0.000005 -0.000007 0.000002 0.000054 0.000009 0.000002 0.000010 -0.000003 -0.000001 -0.000001 1.153611 -6.544359 -17.940928 5.807542 -21.909826 -1.095757 -0.669460 -6.482585 -2.795469 -0.000001 -0.000001 0.000000 -0.000004 -0.000004 0.000002 0.000005 -0.000011 0.000003 0.000006 -0.000001 -0.000002 0.000005 -0.000001 -0.000003 -0.000000 -0.000006 -0.000000 0.000009 -0.000002 0.000020 0.000003 -0.000003 -0.000000 0.000002 0.000001 -0.000001 -0.000009 0.000001 0.000009 0.000006 -0.000004 -0.000006 -0.000008 -0.000006 0.000005 -0.000002 0.000001 -0.000001 -10.628211 10.029803 14.933099 49.651083 -9.150986 -0.412428 23.274643 -1.292041 -3.527594 -53.821775 0.305750 -0.802357 0.000000 0.000001 -0.000000 -50.852753 -4.403991 5.959492 38.972653 -10.109456 -0.583666 1.780280 -2.463985 -2.468397 -0.122377 0.000002 0.000001 -0.000000 -0.000001 -0.000000 
-6.114510 181.035980 33.829346 9.104891 2.861755 -6.913209 3.778149 -0.370071 1.855402 7.328236 -1.211295 0.249616 7.329161 -1.205542 0.245770 -3.379498 0.594392 2.830868 -11.238328 -1.223728 6.301866 0.000001 -0.000000 -0.000000 0.000001 -0.000000 -0.000000 0.000001 -0.000000 -0.000000 0.603919 1.467020 -9.998542 -77.923723 -95.654661 -109.639255 0.000284 -96.901492 0.000357 -34.254966 14.774322 -20.342730 0.948670 3.492798 -30.382450 0.507092 2.597996 -22.085623 0.127710 1.322553 -11.029067 -0.000001 0.000000 -0.000002 -10.213116 1.896123 12.030096 -3.696915 25.665085 4.498738 -3.976318 10.556356 3.974257 -0.000001 0.000003 0.000000 0.949652 3.494462 -30.398501 0.506357 2.596210 -22.069608 0.127723 1.322555 -11.029069 -0.000001 0.000001 -0.000002 0.949657 3.494466 -30.398484 0.506376 2.596224 -22.069615 0.127705 1.322535 -11.029066 -0.000002 0.000000 0.000002 2.999579 6.997535 -30.075601 0.511077 -1.462481 -22.543717 0.127712 1.322559 -11.029076 -0.000001 0.000001 0.000001 0.710989 -2.729075 11.735869 -19.305665 60.456969 70.625044 -0.000010 7.300857 -0.000004 -12.045356 5.412896 3.333596 -0.000008 -0.000007 0.000005 -0.000011 0.000002 0.000056 0.000010 0.000002 0.000007 -0.000001 0.000001 -0.000002 1.153608 -6.544363 -17.940926 5.807544 -21.909830 -1.095762 -0.669453 -6.482583 -2.795469 -0.000002 0.000000 0.000000 -0.000010 -0.000006 0.000000 -0.000003 -0.000006 0.000006 0.000005 0.000001 -0.000005 0.000002 -0.000001 -0.000002 -0.000003 -0.000009 0.000003 0.000004 -0.000006 0.000022 0.000000 -0.000000 -0.000001 0.000000 0.000001 0.000000 -0.000011 -0.000002 0.000011 0.000015 -0.000006 -0.000005 -0.000007 -0.000005 0.000005 -0.000001 -0.000001 -0.000000 -16.023001 4.898900 16.399173 60.294055 -5.917410 -0.192061 28.770656 -1.339743 -10.305427 -12.127170 0.118466 -1.004737 -0.000000 0.000000 0.000002 -49.648246 -5.663585 7.732529 45.168563 -10.660820 -0.561620 -4.880821 -2.031463 -1.762861 -0.172338 0.000003 0.000000 0.000000 -0.000001 0.000000 
-6.241253 181.791733 43.999268 9.037168 2.309868 -7.878268 3.934153 -0.246062 2.744322 7.533177 -0.904926 0.353526 7.535566 -0.884899 0.348368 -3.316298 0.539192 3.047173 -11.115697 -1.178771 6.085137 -0.000000 0.000000 -0.000000 -0.000000 0.000000 -0.000000 -0.000000 0.000000 -0.000000 0.611060 1.589845 -10.106813 -76.501472 -96.135322 -108.088392 -0.000384 -96.806525 -0.000526 -34.636538 14.168188 -19.736054 0.948672 3.492800 -30.382454 0.507101 2.597995 -22.085622 0.127683 1.322558 -11.029063 0.000001 0.000000 -0.000000 -10.213115 1.896124 12.030098 -3.696916 25.665081 4.498739 -3.976317 10.556355 3.974258 -0.000001 0.000001 0.000002 0.949653 3.494462 -30.398498 0.506390 2.596210 -22.069593 0.127677 1.322552 -11.029059 -0.000001 0.000000 -0.000000 0.949659 3.494465 -30.398484 0.506377 2.596215 -22.069596 0.127694 1.322549 -11.029076 -0.000001 -0.000000 0.000001 2.999578 6.997534 -30.075597 0.511052 -1.462495 -22.543702 0.127689 1.322565 -11.029071 0.000000 0.000000 -0.000000 0.712906 -2.766040 11.767665 -22.707500 59.629198 73.908760 -0.000002 3.472429 -0.000003 -10.012597 6.951173 2.326015 -0.000010 -0.000007 0.000005 -0.000012 -0.000001 0.000057 0.000004 0.000003 0.000009 0.000005 0.000000 -0.000002 1.153610 -6.544362 -17.940926 5.807542 -21.909828 -1.095757 -0.669458 -6.482580 -2.795469 -0.000002 0.000000 -0.000000 -0.000012 -0.000007 0.000003 0.000001 -0.000008 0.000005 0.000004 0.000000 -0.000003 -0.000006 0.000002 -0.000002 -0.000005 -0.000009 0.000003 0.000005 -0.000006 0.000022 -0.000004 -0.000002 0.000002 -0.000001 -0.000000 -0.000002 -0.000012 -0.000001 0.000011 0.000014 -0.000006 -0.000006 -0.000007 -0.000009 0.000004 0.000002 0.000000 0.000000 -22.475502 0.366886 15.138324 69.890204 -0.110703 0.095459 25.356876 -1.331644 -11.567468 2.209254 0.003464 0.588830 -0.000000 0.000000 -0.000000 -46.427917 -6.787490 8.897485 46.911184 -10.729087 -0.506304 -9.621518 -0.992535 -1.513304 -0.202197 -0.000001 -0.000001 0.000000 -0.000001 0.000000 
-6.386215 184.244370 54.506416 9.396561 1.348205 -8.076064 3.940986 -0.033459 3.108847 7.503040 -0.514814 0.288412 7.505389 -0.481252 0.283335 -3.269429 0.503198 3.174695 -10.850586 -1.164533 5.960566 -0.000001 0.000000 -0.000001 -0.000001 0.000000 -0.000001 -0.000001 0.000000 -0.000001 0.619589 1.698949 -10.234776 -73.565488 -96.907865 -105.245996 0.000162 -96.767279 0.000161 -34.752218 13.597958 -19.100870 0.948671 3.492799 -30.382457 0.507092 2.597977 -22.085603 0.127669 1.322563 -11.029050 -0.000000 0.000000 -0.000000 -10.213115 1.896122 12.030095 -3.696915 25.665083 4.498739 -3.976320 10.556359 3.974258 -0.000001 0.000001 -0.000000 0.949653 3.494462 -30.398501 0.506348 2.596196 -22.069607 0.127684 1.322566 -11.029059 -0.000000 0.000000 -0.000000 0.949657 3.494466 -30.398488 0.506370 2.596203 -22.069624 0.127661 1.322557 -11.029047 -0.000001 -0.000000 -0.000000 2.999579 6.997534 -30.075597 0.511054 -1.462500 -22.543712 0.127679 1.322565 -11.029065 -0.000001 0.000000 0.000001 0.718321 -2.823734 11.853328 -24.902675 58.597265 76.367689 0.000004 0.000003 -0.000020 -8.511815 7.856724 1.902702 -0.000007 -0.000005 0.000005 -0.000008 0.000000 0.000057 0.000004 0.000002 0.000010 -0.000001 -0.000001 -0.000002 1.153609 -6.544360 -17.940928 5.807537 -21.909831 -1.095752 -0.669465 -6.482583 -2.795466 -0.000002 0.000000 0.000001 -0.000007 -0.000003 -0.000001 -0.000002 -0.000010 0.000007 0.000000 -0.000001 -0.000001 -0.000004 0.000002 -0.000002 -0.000001 -0.000007 -0.000000 0.000006 -0.000005 0.000022 -0.000005 -0.000002 0.000003 -0.000004 -0.000000 -0.000001 -0.000008 0.000000 0.000011 0.000010 -0.000008 -0.000004 -0.000006 -0.000008 0.000006 0.000003 -0.000001 -0.000000 -29.609963 -1.727980 12.263610 76.067318 5.805241 0.328277 15.793984 -0.841994 -6.787265 -0.621516 0.041388 -1.950079 0.000001 -0.000000 -0.000000 -41.598437 -7.417661 9.509942 45.006582 -9.827555 -0.424925 -12.764379 0.055361 -1.691002 -0.192062 0.000008 -0.000001 -0.000000 0.000000 -0.000000 
